<?xml version="1.0" encoding="UTF-8" standalone="no"?>
<!-- Created with Inkscape (http://www.inkscape.org/) -->

<svg
   width="939.13776"
   height="959.02295"
   viewBox="0 0 248.48019 253.74149"
   version="1.1"
   id="svg1"
   xml:space="preserve"
   xmlns="http://www.w3.org/2000/svg"
   xmlns:svg="http://www.w3.org/2000/svg"><defs
     id="defs1" /><g
     id="layer1"
     transform="translate(-130.25524,-39.204139)"><rect
       style="font-variation-settings:'opsz' 32;fill:#ffffff;fill-opacity:1;stroke:#000000;stroke-width:3.44733;stroke-linecap:square;stroke-linejoin:round;stroke-miterlimit:5.4;stroke-dasharray:none;stroke-opacity:1;paint-order:markers stroke fill"
       id="rect14"
       width="245.03285"
       height="250.29414"
       x="131.97891"
       y="40.927803" /><path
       style="font-variation-settings:'opsz' 32;fill:#ffffff;fill-opacity:1;stroke:#000000;stroke-width:3.687;stroke-linecap:square;stroke-linejoin:round;stroke-miterlimit:5.4;stroke-dasharray:none;stroke-opacity:1;paint-order:markers stroke fill"
       id="path15"
       d="m 207.81458,62.842629 c -0.47899,1.764482 0.11393,3.79903 1.33775,5.153691 0.38637,0.427668 0.88375,0.740056 1.32563,1.110086 0.63493,0.301644 1.22306,0.733563 1.90479,0.904931 3.45686,0.868952 7.70115,-1.259271 10.25036,-3.41666 0.80652,-0.682562 1.47034,-1.517753 2.20552,-2.276628 1.46545,-1.938137 2.991,-3.994328 3.53544,-6.421705 0.16897,-0.753327 0.32138,-1.920301 -0.38505,-2.543987 -0.3406,-0.300699 -0.83672,-0.354404 -1.25508,-0.531606 -0.40153,0.173778 -0.84743,0.268639 -1.20461,0.521332 -2.35246,1.664295 -3.0353,5.040609 -2.55749,7.709474 0.15851,0.885343 0.52935,1.719188 0.79403,2.578783 0.43936,0.771588 0.79121,1.600054 1.31806,2.314765 1.52197,2.064652 3.82413,3.520927 6.37369,3.919948 2.11563,0.331107 3.02308,-0.193705 5.05091,-0.784683 0.85842,-0.429832 1.76618,-0.772742 2.57527,-1.289492 3.1203,-1.992895 5.60973,-5.102495 7.43944,-8.277976 0.33599,-0.583105 0.61062,-1.199473 0.91593,-1.799209 0.30351,-0.938827 1.1556,-2.291602 0.67271,-3.355436 -0.0902,-0.19867 -0.26331,-0.371967 -0.46067,-0.464973 -1.04581,-0.492821 -1.18689,-0.302951 -2.20776,-0.08837 -2.33325,0.940766 -4.38753,2.665201 -5.28242,5.083601 -0.21781,0.58861 -0.31193,1.215858 -0.4679,1.823789 -0.0545,0.681156 -0.17633,1.360262 -0.16336,2.043469 0.0564,2.968757 1.2094,6.109145 3.36228,8.202732 0.55494,0.539652 1.22725,0.943697 1.84088,1.415547 0.97445,0.379074 1.91022,0.878705 2.92335,1.137221 3.00674,0.767221 6.74312,0.279914 9.5817,-0.892913 2.69974,-1.115454 3.47063,-2.035066 5.65866,-3.860641 1.92579,-1.992323 3.53346,-4.253161 4.51106,-6.860855 0.35653,-0.951045 0.71232,-2.285756 0.58862,-3.343304 -0.0478,-0.408366 -0.25966,-0.78023 -0.38949,-1.170344 -0.62738,-0.872805 -1.83825,-1.976507 -3.03499,-1.728944 -1.47021,0.304131 -2.26506,1.91358 -2.95256,3.036644 -1.1362,2.478008 -1.90133,5.191625 -1.5556,7.943622 0.22627,1.801106 0.49736,2.063965 1.24413,3.667779 0.5725,0.493868 1.07491,1.08317 1.71749,1.481608 1.75049,1.085408 3.72185,1.87633 5.80917,1.942486 2.3268,0.07375 5.19062,-0.578847 7.35571,-1.322091 1.20216,-0.412686 2.3369,-1.000495 3.50533,-1.500743 0.99973,-0.702553 2.05687,-1.329801 2.99921,-2.107657 2.65843,-2.194439 5.27653,-5.341771 5.83057,-8.859774 0.089,-0.565325 0.0274,-1.14426 0.0411,-1.716389 -0.18389,-0.474737 -0.29102,-0.986872 -0.55163,-1.42421 -0.77629,-1.302721 -2.43102,-2.333919 -3.97352,-2.227935 -1.25997,0.08657 -1.62284,0.536422 -2.65726,1.220915 -0.40931,0.445137 -0.87516,0.844272 -1.22796,1.335413 -1.76829,2.461715 -2.11449,5.72213 -1.44412,8.621141 0.1864,0.806005 0.52028,1.570624 0.78042,2.35594 0.41669,0.713761 0.757,1.477996 1.2501,2.141283 2.3173,3.117001 6.46747,5.223793 10.04641,6.482276 0.84151,0.295897 1.7135,0.496578 2.57027,0.744868 0.82373,0.19485 1.64748,0.389699 2.47121,0.584549 0,0 -0.0159,-0.01217 -0.0159,-0.01217 v 0 c -0.87273,-0.232875 -1.74546,-0.465751 -2.61819,-0.698627 -4.29061,-1.49543 -8.93077,-3.009032 -11.78711,-6.804736 -0.49662,-0.659977 -0.84285,-1.42072 -1.26431,-2.131081 -0.264,-0.782209 -0.60174,-1.543296 -0.79203,-2.34663 -0.68098,-2.874772 -0.35078,-6.124781 1.40997,-8.568385 0.35025,-0.486106 0.81391,-0.879465 1.22086,-1.3192 0.44194,-0.286271 0.8445,-0.645207 1.32578,-0.858813 1.54839,-0.687245 3.16026,-0.255884 4.05008,1.177938 0.2662,0.428958 0.38118,0.934971 0.57179,1.402456 -0.006,0.569724 0.064,1.145357 -0.018,1.709171 -0.51062,3.508071 -3.10674,6.669339 -5.75223,8.852016 -0.93988,0.77546 -1.99763,1.395815 -2.99646,2.093722 -1.16636,0.497875 -2.29854,1.084967 -3.49906,1.493626 -2.19866,0.748419 -5.01261,1.370973 -7.36925,1.27644 -0.97192,-0.03899 -1.92702,-0.296767 -2.86486,-0.554821 -0.60671,-0.166941 -1.21362,-0.381124 -1.74747,-0.714282 -0.63625,-0.397066 -1.14696,-0.966629 -1.72045,-1.44994 -0.27612,-0.575022 -0.61595,-1.123585 -0.82837,-1.72506 -1.16165,-3.289348 -0.46793,-6.847395 0.89929,-9.943621 0.68247,-1.114179 1.46611,-2.705399 2.93784,-2.979319 0.3215,-0.05984 0.65604,0.04614 0.97272,0.127783 0.17409,0.04488 0.34597,0.12641 0.47963,0.246631 0.27827,0.250288 0.49112,0.564904 0.73668,0.847357 0.13738,0.387099 0.35775,0.754161 0.41217,1.161299 0.14081,1.053695 -0.20121,2.393587 -0.54829,3.345254 -0.95253,2.611731 -2.54463,4.87549 -4.46371,6.867096 -2.20462,1.837611 -2.93295,2.724047 -5.65492,3.843063 -1.05098,0.432067 -2.16463,0.713962 -3.28139,0.923972 -2.90949,0.547145 -5.73536,0.333248 -8.47837,-0.776052 -0.6145,-0.468434 -1.2874,-0.868841 -1.84351,-1.405302 -2.15548,-2.07934 -3.33188,-5.22305 -3.40168,-8.184904 -0.0161,-0.681342 0.10497,-1.359011 0.15746,-2.03852 0.15318,-0.606038 0.24441,-1.231209 0.45955,-1.818118 0.88644,-2.418197 2.94331,-4.128911 5.28573,-5.03595 0.3453,-0.06619 0.69375,-0.117634 1.0359,-0.198559 0.13385,-0.03166 0.2589,-0.183795 0.38873,-0.138393 1.4433,0.504682 0.1239,3.081364 -0.12022,3.806081 -0.29902,0.601994 -0.56646,1.22073 -0.89706,1.80598 -1.8008,3.187978 -4.28048,6.297044 -7.40665,8.275955 -0.81127,0.513548 -1.72098,0.851945 -2.58147,1.277919 -0.87986,0.25106 -1.73484,0.61668 -2.63957,0.753179 -3.33129,0.502597 -6.19962,-0.882063 -8.18168,-3.55146 -0.52913,-0.712621 -0.88339,-1.539753 -1.32509,-2.30963 -0.2662,-0.857163 -0.63885,-1.688272 -0.7986,-2.571485 -0.47244,-2.61202 0.20083,-6.064046 2.53605,-7.673398 0.35635,-0.245581 0.8013,-0.327232 1.20195,-0.490847 0.2174,0.05534 0.49335,0.0076 0.65218,0.166028 0.70972,0.707888 0.62489,1.647018 0.437,2.540768 -0.51153,2.433346 -2.02602,4.497046 -3.48019,6.439545 -0.73183,0.759047 -1.39141,1.595091 -2.19548,2.277142 -2.70871,2.297663 -6.59548,4.177321 -10.24063,3.39258 -0.53104,-0.114324 -0.99285,-0.441084 -1.48928,-0.661625 -0.44811,-0.370224 -0.95099,-0.682705 -1.34433,-1.110671 -1.24852,-1.358447 -1.88321,-3.396281 -1.45195,-5.192905 z" /><rect
       style="font-variation-settings:'opsz' 32;fill:#ffffff;fill-opacity:1;stroke:#000000;stroke-width:3.687;stroke-linecap:square;stroke-linejoin:round;stroke-miterlimit:5.4;stroke-dasharray:none;stroke-opacity:1;paint-order:markers stroke fill"
       id="rect16"
       width="83.101822"
       height="23.284569"
       x="154.56136"
       y="128.77345" /><rect
       style="font-variation-settings:'opsz' 32;fill:#ffffff;fill-opacity:1;stroke:#000000;stroke-width:3.687;stroke-linecap:square;stroke-linejoin:round;stroke-miterlimit:5.4;stroke-dasharray:none;stroke-opacity:1;paint-order:markers stroke fill"
       id="rect18"
       width="99.5616"
       height="25.693316"
       x="157.24335"
       y="217.16147" /><rect
       style="font-variation-settings:'opsz' 32;fill:#ffffff;fill-opacity:1;stroke:#000000;stroke-width:3.29983;stroke-linecap:square;stroke-linejoin:round;stroke-miterlimit:5.4;stroke-dasharray:none;stroke-opacity:1;paint-order:markers stroke fill"
       id="rect20"
       width="75.812592"
       height="24.073193"
       x="246.92821"
       y="128.57985" /><path
       style="font-variation-settings:'opsz' 32;fill:#ffffff;fill-opacity:1;stroke:#000000;stroke-width:3.687;stroke-linecap:square;stroke-linejoin:round;stroke-miterlimit:5.4;stroke-dasharray:none;stroke-opacity:1;paint-order:markers stroke fill"
       id="path22"
       d="m 168.24277,117.38914 c 0.088,0.17908 0.1127,0.40714 0.26398,0.53725 1.68244,1.44686 4.30847,0.87069 6.12483,0.0747 0.60549,-0.26537 1.15098,-0.6507 1.72646,-0.97604 1.16915,-0.94635 3.40126,-2.77893 2.74335,-4.61055 -0.0951,-0.26464 -0.26498,-0.5776 -0.5364,-0.65108 -0.44518,-0.12053 -0.91814,0.0887 -1.3772,0.13298 -0.41584,0.36917 -0.89742,0.6755 -1.24753,1.1075 -1.48798,1.83608 -2.63422,5.35704 -0.47066,7.21247 0.58294,0.49992 1.36762,0.69898 2.05143,1.04847 0.77781,0.0471 1.55665,0.2031 2.33343,0.14128 3.70849,-0.2951 6.70196,-2.52466 8.92079,-5.36865 0.46803,-0.5999 0.84626,-1.26475 1.26939,-1.89712 -0.1228,-0.8585 1.22687,-1.69813 1.10559,-2.64644 -0.0244,-0.19098 -0.32327,-0.40787 -0.48824,-0.3086 -0.24608,0.14808 -0.24036,0.52352 -0.32499,0.79797 -0.42312,1.37224 -0.33558,1.41183 -0.44438,2.90783 0.14616,0.54213 0.16037,1.13862 0.43848,1.6264 0.80342,1.40911 2.38681,2.1567 3.82708,2.66681 2.73901,0.9701 5.85837,0.90356 8.71245,0.9044 2.3647,-0.008 4.66804,-0.44615 6.95929,-0.97066 0,0 -0.0164,-0.0115 -0.0164,-0.0115 v 0 c -2.42269,0.31112 -4.84652,0.63952 -7.29073,0.7294 -2.98166,-0.002 -5.83357,-0.018 -8.71597,-0.93172 -1.29632,-0.41094 -2.35271,-0.97508 -3.0702,-2.19382 -0.28574,-0.48536 -0.31116,-1.08263 -0.46675,-1.62395 0.0899,-1.49191 -0.007,-1.53793 0.43011,-2.89952 0.0799,-0.24871 0.29319,-0.45643 0.31733,-0.71653 0.009,-0.0974 -0.18525,-0.26133 -0.23439,-0.17671 -0.17897,0.30816 -0.13767,0.70283 -0.26456,1.03584 -0.21491,0.56403 -0.50462,1.09664 -0.75693,1.64496 -1.07905,1.64824 -1.49216,2.47378 -2.97816,3.87674 -1.97892,1.86833 -4.43079,3.16615 -7.18423,3.36677 -0.77845,0.0567 -1.55741,-0.10635 -2.33611,-0.15952 -0.49999,-0.23775 -1.0886,-0.34271 -1.49997,-0.71324 -2.12674,-1.91559 -1.20126,-5.3082 0.391,-7.20826 0.35704,-0.42607 0.85099,-0.71544 1.27649,-1.07315 0.28476,-0.13969 0.54114,-0.46951 0.8543,-0.41909 0.65315,0.10516 0.72077,1.28586 0.66486,1.65438 -0.14158,0.93333 -0.73733,1.77524 -1.36295,2.43677 -0.41699,0.44093 -0.91593,0.79641 -1.37389,1.19462 -0.57232,0.32606 -1.11354,0.71408 -1.71696,0.97819 -1.59705,0.69899 -3.38682,1.04936 -5.07672,0.49992 -0.27378,-0.089 -0.54626,-0.21845 -0.75862,-0.41283 -0.15201,-0.13913 -0.19286,-0.36422 -0.2893,-0.54633 z" /><path
       style="font-variation-settings:'opsz' 32;fill:#ffffff;fill-opacity:1;stroke:#000000;stroke-width:3.687;stroke-linecap:square;stroke-linejoin:round;stroke-miterlimit:5.4;stroke-dasharray:none;stroke-opacity:1;paint-order:markers stroke fill"
       id="path23"
       d="m 170.2101,137.51261 c 0.22746,1.74809 0.16778,4.55626 1.44569,5.89891 0.27077,0.28449 0.67466,0.4023 1.01198,0.60345 0.49027,0.0163 0.99001,0.14604 1.47081,0.0488 1.56808,-0.31719 3.0682,-1.79708 4.29305,-2.7346 0.39265,-0.30054 0.76161,-0.64105 1.19547,-0.87824 0.34526,-0.18876 0.74388,-0.2569 1.11581,-0.38535 1.89127,0.40517 2.89795,2.17716 4.84417,2.56941 1.30406,0.26282 1.99311,-0.15499 3.21489,-0.55567 1.7029,-0.69292 3.0927,-1.9411 4.71958,-2.76695 0.38336,-0.19461 0.77312,-0.41672 1.19906,-0.47519 0.8313,-0.11411 1.49642,0.32364 2.19807,0.65067 2.9229,1.56771 4.72812,0.59424 7.56719,-0.46094 2.55576,-0.65285 3.25327,0.6212 5.33061,1.63189 0.40977,0.19937 0.84863,0.33234 1.27295,0.49852 1.28125,0.35432 2.54517,0.17673 3.83246,0.009 0,0 -0.0163,-0.0116 -0.0163,-0.0116 v 0 c -1.34165,0.16053 -2.65326,0.24799 -3.97869,-0.12474 -0.42713,-0.16974 -0.86607,-0.31234 -1.28138,-0.50924 -2.08058,-0.98642 -2.79558,-2.31242 -5.35031,-1.62188 -2.83955,1.05719 -4.63671,2.01083 -7.5573,0.44564 -0.71141,-0.32639 -1.36318,-0.75524 -2.20246,-0.63095 -0.42366,0.0627 -0.80903,0.28904 -1.18951,0.48564 -1.61942,0.83675 -3.01048,2.08065 -4.71854,2.76183 -1.39097,0.4453 -1.77037,0.75678 -3.21543,0.53703 -1.89387,-0.28799 -2.91889,-2.2815 -4.82256,-2.53589 -0.36924,0.13234 -0.7652,0.20589 -1.10774,0.39701 -0.43095,0.24045 -0.79677,0.58267 -1.18778,0.88376 -1.65134,1.2716 -3.23727,2.80684 -5.45331,2.83895 -0.34186,-0.1997 -0.75012,-0.31472 -1.02557,-0.59911 -1.28997,-1.33185 -1.27789,-4.16384 -1.49259,-5.91454 z" /><path
       style="font-variation-settings:'opsz' 32;fill:#ffffff;fill-opacity:1;stroke:#000000;stroke-width:3.687;stroke-linecap:square;stroke-linejoin:round;stroke-miterlimit:5.4;stroke-dasharray:none;stroke-opacity:1;paint-order:markers stroke fill"
       id="path24"
       d="m 276.65912,141.56117 c 0.39886,0.90083 1.05302,3.24958 1.93885,3.69513 1.26936,0.63845 1.86465,0.0947 3.03238,-0.36967 1.63272,-0.78605 2.90108,-2.22894 4.74314,-2.57109 1.53921,-0.28589 2.90263,0.41227 4.26738,0.987 2.56807,1.05715 4.52139,0.54717 7.07176,-0.22428 0.64331,-0.1946 1.27164,-0.44207 1.92482,-0.60037 0.5702,-0.13818 1.15771,-0.19131 1.73656,-0.28696 0.52753,0.0171 1.0567,0.007 1.58261,0.0513 0.0932,0.008 2.94674,0.41773 3.0299,0.42262 1.81192,0.10667 3.60302,-0.17026 5.38681,-0.43676 0.44262,-0.0279 0.88524,-0.0558 1.32787,-0.0837 0,0 -0.0161,-0.0117 -0.0161,-0.0117 v 0 c -0.46829,0.01 -0.93658,0.0193 -1.40486,0.029 -1.8804,0.0954 -3.7909,0.33628 -5.67502,0.21795 -1.0091,-0.0634 -1.99838,-0.3268 -3.00686,-0.3992 -0.52004,-0.0373 -1.04262,-0.0185 -1.56393,-0.0277 -0.57605,0.0998 -1.16049,0.15959 -1.72815,0.29944 -0.6522,0.16067 -1.27997,0.40814 -1.92363,0.6002 -2.54169,0.7584 -4.51469,1.24013 -7.06585,0.19457 -1.3479,-0.54914 -2.68121,-1.19587 -4.18926,-0.89735 -1.83454,0.36316 -3.0994,1.80497 -4.74419,2.57111 -0.14393,0.0545 -1.96336,0.91126 -2.49049,0.66071 -0.8662,-0.4117 -1.66434,-2.85075 -2.05449,-3.73692 z" /><path
       style="font-variation-settings:'opsz' 32;fill:#ffffff;fill-opacity:1;stroke:#000000;stroke-width:3.687;stroke-linecap:square;stroke-linejoin:round;stroke-miterlimit:5.4;stroke-dasharray:none;stroke-opacity:1;paint-order:markers stroke fill"
       id="path25"
       d="m 155.77697,211.26273 c 1.53026,0.9113 3.53675,1.00185 5.24968,0.63673 0.47776,-0.10184 0.93667,-0.27773 1.40501,-0.4166 2.31677,-0.90278 4.07181,-2.55583 5.23552,-4.7222 0.25527,-0.65925 0.52311,-1.80668 -0.28189,-2.24508 -0.17605,-0.0959 -0.37356,-0.14558 -0.56034,-0.21837 -0.98357,0.10132 -1.43291,1.29111 -1.46504,2.16428 -0.01,0.27017 0.039,0.53929 0.0585,0.80893 0.57734,2.21287 1.63991,3.06702 3.80831,3.69353 2.19801,0.36519 4.36351,-0.18966 6.42279,-0.92473 1.94228,-0.73292 3.77288,-1.71472 5.44264,-2.94521 1.19429,-0.9539 2.18226,-2.11878 3.27584,-3.17756 0.5354,-0.50954 1.06798,-1.06176 1.76041,-1.3527 0.58691,-0.17394 1.17539,-0.10267 1.74999,0.0713 0.0728,0.0377 0.28655,0.15851 0.2183,0.11313 -0.0827,-0.055 -0.16284,-0.14902 -0.26194,-0.14215 -0.0445,0.003 0.0989,0.005 0.32023,0.39775 0.14733,0.2613 0.17674,0.38839 0.2765,0.67439 0.34444,1.0963 0.12518,2.13552 -0.28404,3.17528 -0.795,1.45193 -1.7663,2.14051 -3.32574,2.63965 -0.74098,0.12699 -2.23258,0.4837 -2.89163,-0.087 -0.0525,-0.0454 0.18419,0.0166 0.20195,-0.0505 0.0359,-0.13543 -0.0529,-0.27516 -0.0793,-0.41274 0.0475,-0.15044 0.0497,-0.32373 0.14245,-0.45132 0.13651,-0.18773 0.3284,-0.33259 0.52139,-0.46157 1.34951,-0.90191 2.80039,-0.78573 4.339,-0.64483 2.73389,0.48074 5.15768,1.91378 7.66745,3.02838 1.5114,0.59353 3.2065,1.2153 4.86786,0.91467 0.93707,-0.16957 1.26559,-0.46278 2.05544,-0.93776 0.90088,-0.77157 2.19826,-2.21297 1.51985,-3.52555 -0.0853,-0.16511 -0.23476,-0.28822 -0.35214,-0.43233 -0.34439,-0.19067 -0.66758,-0.42608 -1.03318,-0.57203 -0.78512,-0.31342 -1.88479,0.0842 -2.34611,0.7669 -0.1358,0.20095 -0.1909,0.44592 -0.28635,0.66889 -0.0174,0.27602 -0.0777,0.55267 -0.0521,0.82806 0.22355,2.41099 2.83899,3.42147 4.8021,4.08913 1.34605,0.21896 3.26226,0.99257 4.61938,0.53696 0,0 -0.0162,-0.0117 -0.0162,-0.0117 v 0 c -1.71212,-0.24497 -3.43327,-0.47915 -5.10837,-0.9186 -0.46763,-0.16374 -0.9453,-0.30119 -1.40288,-0.4912 -1.53296,-0.63654 -2.48972,-2.07426 -2.29007,-3.72328 0.0891,-0.21702 0.13769,-0.45553 0.26732,-0.65106 0.36292,-0.54741 1.04849,-0.82361 1.68589,-0.81257 0.59286,0.0103 0.68863,0.3082 0.58855,0.0481 0.12125,0.13662 0.27356,0.25101 0.36376,0.40986 0.7214,1.27049 -0.57194,2.72052 -1.44616,3.47555 -0.31414,0.18911 -0.60838,0.4161 -0.9424,0.56733 -1.93404,0.87569 -4.08276,0.17447 -5.92835,-0.57349 -2.51547,-1.11903 -4.94656,-2.55436 -7.69125,-3.02335 -1.55181,-0.13712 -3.0275,-0.2464 -4.38423,0.67159 -0.20086,0.13591 -0.39843,0.29032 -0.54091,0.48658 -0.0981,0.13518 -0.10512,0.31712 -0.15768,0.47569 0.0214,0.14744 -0.0293,0.32629 0.0642,0.44231 0.93615,1.16224 2.38613,0.9478 3.66018,0.6545 1.56863,-0.51727 2.54278,-1.21663 3.35108,-2.67619 0.4195,-1.04441 0.65015,-2.09197 0.31624,-3.19984 -0.27186,-0.80786 -0.58523,-1.28207 -1.44768,-1.58926 -0.58149,-0.1652 -1.18237,-0.2293 -1.76913,-0.0397 -0.68662,0.31165 -1.22027,0.86144 -1.75569,1.37784 -1.08282,1.05916 -2.04901,2.23314 -3.21506,3.20784 -1.65397,1.21917 -3.42874,2.26894 -5.36259,2.98366 -2.05544,0.72995 -4.21403,1.28224 -6.40625,0.90955 -0.29479,-0.0866 -1.09769,-0.27581 -1.42734,-0.5017 -0.97912,-0.67094 -1.56577,-1.72133 -1.84712,-2.85003 -0.0224,-0.26861 -0.0747,-0.53641 -0.0671,-0.80584 0.0203,-0.71831 0.35107,-1.76155 1.07407,-2.08864 0.10983,-0.0497 0.23953,-0.0274 0.35929,-0.0412 0.66322,-0.374 0.83443,2.14143 0.41523,2.17718 -1.11362,2.18028 -2.83034,3.86002 -5.13692,4.76617 -0.46634,0.13939 -0.92324,0.31552 -1.39902,0.41818 -1.61827,0.34917 -3.56899,0.29613 -5.03886,-0.52024 z" /><path
       style="font-variation-settings:'opsz' 32;fill:#ffffff;fill-opacity:1;stroke:#000000;stroke-width:3.687;stroke-linecap:square;stroke-linejoin:round;stroke-miterlimit:5.4;stroke-dasharray:none;stroke-opacity:1;paint-order:markers stroke fill"
       id="path26"
       d="m 217.43905,115.04487 c 0.0817,-0.0662 0.15935,-0.13754 0.24496,-0.1985 0.27706,-0.19727 0.66132,-0.41836 1.02222,-0.35698 0.51337,0.0873 0.22367,0.13247 0.1183,0.1598 -0.12823,0.0766 -0.1343,0.11116 -0.31719,0.0338 -0.0535,-0.0226 0.12797,0.0518 0.17357,0.0158 0.0532,-0.042 0.0144,-0.14149 0.0547,-0.19603 0.17188,-0.2324 0.2937,-0.22007 0.55128,-0.29209 0.2777,0.0298 0.33554,-10e-4 0.56864,0.17031 0.0253,0.0186 -0.098,-0.0426 -0.0935,-0.0115 0.008,0.0538 0.17036,0.25943 0.22023,0.31989 0.0386,0.0266 0.0772,0.0532 0.11572,0.0798 0,0 0.0176,0.01 0.0176,0.01 v 0 c 0.043,0.0118 0.086,0.0237 0.129,0.0355 0.1649,-0.2337 -0.89276,-0.86595 -1.24962,-0.80311 -1.10795,0.34552 -0.57484,1.1021 -0.009,0.87054 0.048,-0.0197 0.069,-0.0776 0.10344,-0.11636 -0.77116,-0.69696 -1.08663,-0.45345 -1.86238,0.14945 z" /><path
       style="font-variation-settings:'opsz' 32;fill:#ffffff;fill-opacity:1;stroke:#000000;stroke-width:3.687;stroke-linecap:square;stroke-linejoin:round;stroke-miterlimit:5.4;stroke-dasharray:none;stroke-opacity:1;paint-order:markers stroke fill"
       id="path27"
       d="m 218.72131,123.11596 c 0.44501,-0.15888 1.01155,-0.37713 1.47089,-0.13622 0.0205,0.0107 -0.0512,-0.004 -0.0683,0.0117 -0.0305,0.0278 -0.0415,0.0714 -0.0622,0.10703 -0.17667,0.165 -0.36796,0.15405 -0.58099,0.0805 0,0 -0.0187,-0.007 -0.0187,-0.007 v 0 c 0.27658,0.17899 0.51998,0.2998 0.79683,0.0397 0.33633,-0.67397 -1.49599,-0.37315 -1.71361,-0.21347 z" /><path
       style="font-variation-settings:'opsz' 32;fill:#ffffff;fill-opacity:1;stroke:#000000;stroke-width:3.687;stroke-linecap:square;stroke-linejoin:round;stroke-miterlimit:5.4;stroke-dasharray:none;stroke-opacity:1;paint-order:markers stroke fill"
       id="path30"
       d="m 169.10904,233.92726 c 1.87906,-1.52419 4.1986,-2.51274 6.66048,-2.19625 0.65136,0.0837 1.27403,0.31932 1.91105,0.47898 2.8376,1.14072 5.5902,2.58365 8.72304,2.64262 2.11808,0.0399 2.70646,-0.26085 4.70282,-0.79019 1.56541,-0.6563 3.09943,-1.50708 3.65289,-3.23139 0.12124,-0.37774 0.21348,-1.19772 -0.16025,-1.55343 -0.16501,-0.15706 -0.42456,-0.1653 -0.63684,-0.24795 -0.13213,0.14903 -0.32011,0.2631 -0.39637,0.44709 -0.72336,1.74526 0.39086,3.9321 1.77453,4.97947 0.5987,0.45319 1.30963,0.73496 1.96444,1.10244 0.71417,0.15028 1.41492,0.39392 2.14251,0.45086 3.96171,0.31004 7.30961,-1.87178 10.41661,-4.01137 1.06316,-0.85161 2.24946,-1.5878 3.17042,-2.60721 0.0286,-0.0317 0.49896,-0.51739 0.31858,-0.72934 -0.12259,-0.14404 -0.32561,-0.19257 -0.48842,-0.28885 -0.4141,0.0947 -0.54696,0.068 -0.87193,0.4549 -0.16085,0.19151 -0.37015,0.40035 -0.37402,0.65041 -0.0137,0.88312 0.88171,1.68626 1.46318,2.13205 0.52507,0.40256 1.12922,0.68983 1.69383,1.03474 2.83849,1.40978 5.90363,2.41409 9.03784,2.90883 0.15113,0.0153 0.30227,0.0306 0.4534,0.0458 0,0 -0.016,-0.0121 -0.016,-0.0121 v 0 c -0.19252,-0.0466 -0.38504,-0.0932 -0.57756,-0.13972 -2.95358,-0.66012 -5.91667,-1.35918 -8.64945,-2.70692 -0.55882,-0.34022 -1.15641,-0.6237 -1.67646,-1.02066 -0.55136,-0.42087 -1.45817,-1.23729 -1.45653,-2.08509 5.3e-4,-0.24586 0.20446,-0.45429 0.36344,-0.64184 0.32395,-0.38218 0.45448,-0.34574 0.86391,-0.41674 -0.145,-0.16138 0.0399,0.0195 -0.0338,0.21227 -0.0643,0.16805 -0.18079,0.31354 -0.29788,0.45017 -0.89042,1.03903 -2.07826,1.7716 -3.12661,2.62902 -3.09705,2.14723 -6.44404,4.3249 -10.4031,3.9969 -0.72919,-0.0604 -1.43049,-0.30843 -2.14573,-0.46264 -0.51037,-0.28193 -1.07133,-0.48723 -1.53111,-0.8458 -1.36753,-1.0665 -2.48288,-3.17516 -1.76954,-4.9319 0.0709,-0.17468 0.24882,-0.28331 0.37323,-0.42497 0.67307,-0.10188 0.46543,1.28966 0.39404,1.52813 -0.51793,1.73 -2.04458,2.58718 -3.5975,3.24794 -1.99866,0.53265 -2.57265,0.832 -4.69568,0.78831 -3.12127,-0.0642 -5.86579,-1.50234 -8.69876,-2.62644 -0.63485,-0.15691 -1.25574,-0.38897 -1.90456,-0.47073 -2.47387,-0.31172 -4.8052,0.6852 -6.7308,2.16328 z" /></g></svg>
