<?xml version="1.0" encoding="UTF-8" standalone="no"?>
<!-- Created with Inkscape (http://www.inkscape.org/) -->

<svg
   width="1082.0774"
   height="661.13702"
   viewBox="0 0 286.29964 174.92584"
   version="1.1"
   id="svg1"
   xml:space="preserve"
   xmlns="http://www.w3.org/2000/svg"
   xmlns:svg="http://www.w3.org/2000/svg"><defs
     id="defs1" /><g
     id="layer1"
     transform="translate(-143.64101,-47.725635)"><rect
       style="font-variation-settings:'opsz' 32;fill:#ffffff;fill-opacity:1;stroke:#000000;stroke-width:3.687;stroke-linecap:square;stroke-linejoin:round;stroke-miterlimit:5.4;stroke-dasharray:none;stroke-opacity:1;paint-order:markers stroke fill"
       id="rect38"
       width="282.60849"
       height="171.23885"
       x="145.48865"
       y="49.569138" /><rect
       style="font-variation-settings:'opsz' 32;fill:#ffffff;fill-opacity:1;stroke:#000000;stroke-width:3.687;stroke-linecap:square;stroke-linejoin:round;stroke-miterlimit:5.4;stroke-dasharray:none;stroke-opacity:1;paint-order:markers stroke fill"
       id="rect39"
       width="216.94547"
       height="11.587591"
       x="166.73256"
       y="57.294201" /><rect
       style="font-variation-settings:'opsz' 32;fill:#8cff8c;fill-opacity:1;stroke:#000000;stroke-width:3.687;stroke-linecap:square;stroke-linejoin:round;stroke-miterlimit:5.4;stroke-dasharray:none;stroke-opacity:1;paint-order:markers stroke fill"
       id="rect40"
       width="14.162611"
       height="12.231346"
       x="391.40305"
       y="57.294201" /><path
       style="font-variation-settings:'opsz' 32;fill:#ffffff;fill-opacity:1;stroke:#000000;stroke-width:3.67872;stroke-linecap:square;stroke-linejoin:round;stroke-miterlimit:5.4;stroke-dasharray:none;stroke-opacity:1;paint-order:markers stroke fill"
       d="M 145.48037,77.250607 H 427.46164"
       id="path40" /><rect
       style="font-variation-settings:'opsz' 32;fill:#bdffbe;fill-opacity:1;stroke:#000000;stroke-width:3.687;stroke-linecap:square;stroke-linejoin:round;stroke-miterlimit:5.4;stroke-dasharray:none;stroke-opacity:1;paint-order:markers stroke fill"
       id="rect41"
       width="40.556568"
       height="9.6563253"
       x="155.78874"
       y="106.86334" /><rect
       style="font-variation-settings:'opsz' 32;fill:#ffc6c6;fill-opacity:1;stroke:#000000;stroke-width:3.687;stroke-linecap:square;stroke-linejoin:round;stroke-miterlimit:5.4;stroke-dasharray:none;stroke-opacity:1;paint-order:markers stroke fill"
       id="rect42"
       width="55.362934"
       height="14.162611"
       x="176.38889"
       y="143.55739" /><rect
       style="font-variation-settings:'opsz' 32;fill:#ffc6c6;fill-opacity:1;stroke:#000000;stroke-width:3.687;stroke-linecap:square;stroke-linejoin:round;stroke-miterlimit:5.4;stroke-dasharray:none;stroke-opacity:1;paint-order:markers stroke fill"
       id="rect43"
       width="37.981548"
       height="23.175182"
       x="176.3889"
       y="166.08881" /><rect
       style="font-variation-settings:'opsz' 32;fill:#bdffbe;fill-opacity:1;stroke:#000000;stroke-width:3.687;stroke-linecap:square;stroke-linejoin:round;stroke-miterlimit:5.4;stroke-dasharray:none;stroke-opacity:1;paint-order:markers stroke fill"
       id="rect44"
       width="53.431671"
       height="11.587591"
       x="175.74513"
       y="197.6328" /><rect
       style="font-variation-settings:'opsz' 32;fill:#ffc6c6;fill-opacity:1;stroke:#000000;stroke-width:3.687;stroke-linecap:square;stroke-linejoin:round;stroke-miterlimit:5.4;stroke-dasharray:none;stroke-opacity:1;paint-order:markers stroke fill"
       id="rect42-6"
       width="55.362934"
       height="14.162611"
       x="324.70404"
       y="141.01433" /><rect
       style="font-variation-settings:'opsz' 32;fill:#bdffbe;fill-opacity:1;stroke:#000000;stroke-width:3.687;stroke-linecap:square;stroke-linejoin:round;stroke-miterlimit:5.4;stroke-dasharray:none;stroke-opacity:1;paint-order:markers stroke fill"
       id="rect43-1"
       width="37.981548"
       height="23.175182"
       x="324.70407"
       y="163.54575" /><rect
       style="font-variation-settings:'opsz' 32;fill:#ffc6c6;fill-opacity:1;stroke:#000000;stroke-width:3.687;stroke-linecap:square;stroke-linejoin:round;stroke-miterlimit:5.4;stroke-dasharray:none;stroke-opacity:1;paint-order:markers stroke fill"
       id="rect44-8"
       width="53.431671"
       height="11.587591"
       x="324.0603"
       y="195.08974" /><path
       style="font-variation-settings:'opsz' 32;fill:#ffffff;fill-opacity:1;stroke:#000000;stroke-width:3.67872;stroke-linecap:square;stroke-linejoin:round;stroke-miterlimit:5.4;stroke-dasharray:none;stroke-opacity:1;paint-order:markers stroke fill"
       d="M 145.48037,129.39477 H 427.46164"
       id="path44" /><path
       style="font-variation-settings:'opsz' 32;fill:#ffffff;fill-opacity:1;stroke:#000000;stroke-width:3.49259;stroke-linecap:square;stroke-linejoin:round;stroke-miterlimit:5.4;stroke-dasharray:none;stroke-opacity:1;paint-order:markers stroke fill"
       d="m 283.5741,132.42103 v 86.64819"
       id="path45" /><rect
       style="font-variation-settings:'opsz' 32;fill:#ffc6c6;fill-opacity:1;stroke:#000000;stroke-width:3.687;stroke-linecap:square;stroke-linejoin:round;stroke-miterlimit:5.4;stroke-dasharray:none;stroke-opacity:1;paint-order:markers stroke fill"
       id="rect45"
       width="40.556568"
       height="9.6563253"
       x="215.01421"
       y="106.86334" /><rect
       style="font-variation-settings:'opsz' 32;fill:#bdffbe;fill-opacity:1;stroke:#000000;stroke-width:3.687;stroke-linecap:square;stroke-linejoin:round;stroke-miterlimit:5.4;stroke-dasharray:none;stroke-opacity:1;paint-order:markers stroke fill"
       id="rect46"
       width="40.556568"
       height="9.6563253"
       x="274.88342"
       y="106.86334" /><path
       style="font-variation-settings:'opsz' 32;fill:#ffffff;fill-opacity:1;stroke:#000000;stroke-width:3.687;stroke-linecap:square;stroke-linejoin:round;stroke-miterlimit:5.4;stroke-dasharray:none;stroke-opacity:1;paint-order:markers stroke fill"
       id="path46"
       d="m 156.21439,93.452258 c 3.19872,0.540584 5.62755,-1.239917 7.8523,-3.290157 0.2544,-0.408474 1.84989,-2.000927 0.9395,-2.668397 -0.92627,-0.679114 -1.61437,0.327332 -2.08936,0.931688 -0.0825,0.348882 -0.23946,0.688226 -0.24761,1.046644 -0.05,2.197047 2.18529,3.099218 4.04251,3.2214 0.64409,0.04237 1.29014,-0.04621 1.9352,-0.06932 3.53951,-1.039884 7.00996,-3.220249 8.71889,-6.599682 0.0103,-0.124142 0.12581,-0.291888 0.0308,-0.372433 -0.47981,-0.406688 -0.84642,0.495859 -0.92486,0.659027 -0.64577,1.343332 -0.5817,2.520773 -0.40298,3.957892 0.26849,0.468852 0.45763,0.993132 0.80546,1.406554 3.02356,3.593732 7.42746,1.673468 10.90496,0.117435 1.65564,-0.988131 6.18559,-3.690361 5.93864,-6.134028 -0.0225,-0.223137 -0.19258,-0.405104 -0.28888,-0.607656 -0.30789,-0.134207 -0.59128,-0.354459 -0.92369,-0.402624 -1.47419,-0.213606 -2.66745,1.852999 -2.81046,3.035287 -0.0519,0.429376 0.0699,0.862189 0.1048,1.293283 0.24591,0.388429 0.40377,0.849355 0.73774,1.165288 2.17602,2.058485 6.00989,1.770804 8.65801,1.118048 0.81436,-0.200737 1.59241,-0.527405 2.38861,-0.791107 3.04374,-1.285857 5.88778,-3.080761 7.87559,-5.755241 0.0612,-0.06847 0.7854,-1.451139 0.87765,-1.199613 0,0 0.0184,0.0078 0.0184,0.0078 v 0 c -0.6664,-0.646753 -0.9698,0.543605 -1.26854,0.971166 -1.9607,2.680267 -4.78515,4.481751 -7.81954,5.76108 -0.79451,0.262451 -1.57082,0.588283 -2.38353,0.787353 -2.25987,0.55354 -6.06419,1.032978 -7.97138,-0.734476 -0.33355,-0.309115 -0.49442,-0.763405 -0.74163,-1.145109 -0.0396,-0.4274 -0.16457,-0.855397 -0.1189,-1.282194 0.15939,-1.48993 1.40673,-3.240715 3.06004,-2.972467 0.10145,0.197408 0.27717,0.371946 0.30435,0.59223 0.29933,2.425348 -4.24558,5.163987 -5.87827,6.13291 -3.12047,1.392224 -7.63228,3.387664 -10.37231,0.172503 -0.34868,-0.409139 -0.53988,-0.929736 -0.80982,-1.394601 -0.17783,-1.36077 -0.32147,-1.519346 -0.0221,-2.864183 0.35296,-1.585317 0.25878,-0.598099 0.8103,-1.753875 0.0377,-0.07909 0.0106,-0.349795 0.0166,-0.262369 0.008,0.123899 -0.006,0.248298 -0.009,0.372446 -1.63403,3.410836 -5.15759,5.572561 -8.67772,6.596684 -2.1445,0.06865 -5.63377,0.181666 -5.59698,-2.915544 0.004,-0.356867 0.15258,-0.697286 0.22888,-1.045927 0.21257,-0.282123 1.13366,-1.576628 1.74017,-1.11687 0.94115,0.713423 -0.5616,2.199233 -0.8682,2.686159 -2.23117,2.068734 -4.62375,3.853066 -7.8449,3.283434 z" /><path
       style="font-variation-settings:'opsz' 32;fill:#ffffff;fill-opacity:1;stroke:#000000;stroke-width:3.687;stroke-linecap:square;stroke-linejoin:round;stroke-miterlimit:5.4;stroke-dasharray:none;stroke-opacity:1;paint-order:markers stroke fill"
       id="path47"
       d="m 217.76732,98.703626 c 0.19024,0.09993 0.35785,0.270433 0.57072,0.299794 1.2975,0.178959 3.4957,-1.084733 4.80806,-1.420185 0.34332,-0.08776 0.69955,-0.113715 1.04933,-0.170574 1.26899,0.08401 1.23215,1.432242 2.26424,1.9627 1.19692,0.61518 1.48777,0.425704 2.81879,0.377007 2.4368,-0.240522 5.04543,-1.892588 7.45697,-0.831016 0.13797,0.08857 0.27595,0.17713 0.41392,0.265697 0,0 0.0187,0.0073 0.0187,0.0073 v 0 c -0.18622,-0.124256 -0.37244,-0.248512 -0.55865,-0.372769 -2.41344,-1.048559 -5.01155,0.620602 -7.45106,0.844116 -0.93137,0.02838 -1.69176,0.199769 -2.54775,-0.229592 -1.07261,-0.538019 -1.13963,-2.051082 -2.51641,-2.094481 -1.365,0.235564 -0.84112,0.08934 -2.28714,0.603805 -1.09129,0.388258 -2.35515,1.077479 -3.5588,0.986007 -0.13885,-0.01056 -0.25005,-0.122645 -0.37507,-0.183967 z" /><path
       style="font-variation-settings:'opsz' 32;fill:#ffffff;fill-opacity:1;stroke:#000000;stroke-width:3.687;stroke-linecap:square;stroke-linejoin:round;stroke-miterlimit:5.4;stroke-dasharray:none;stroke-opacity:1;paint-order:markers stroke fill"
       id="path48"
       d="m 161.09076,98.69281 c 1.78877,1.71732 3.65206,1.258858 5.88464,1.007131 1.80308,-0.158752 3.22509,0.887049 4.8354,1.451089 1.04225,0.36506 1.15043,0.31051 2.23641,0.41675 1.50286,-0.11779 0.76196,-0.0521 2.22281,-0.19577 0,0 -0.0163,-0.0116 -0.0163,-0.0116 v 0 c -1.53845,0.0801 -0.76387,0.04 -2.32373,0.12047 -1.08567,-0.11008 -1.19505,-0.0567 -2.23612,-0.42213 -1.60943,-0.56491 -3.03329,-1.602826 -4.83534,-1.441689 -1.99355,0.222856 -4.03338,0.709359 -5.60976,-0.85875 z" /><path
       style="font-variation-settings:'opsz' 32;fill:#ffffff;fill-opacity:1;stroke:#000000;stroke-width:3.687;stroke-linecap:square;stroke-linejoin:round;stroke-miterlimit:5.4;stroke-dasharray:none;stroke-opacity:1;paint-order:markers stroke fill"
       id="path49"
       d="m 277.9704,98.121733 c 2.93423,1.676586 4.17798,1.692035 7.41595,0.765252 1.67183,-0.714338 3.42966,-1.25403 5.23227,-0.710078 0.65373,0.197271 1.27146,0.499004 1.91389,0.730398 1.90953,0.546007 3.77227,-0.149307 5.62793,-0.572487 0.53324,-0.121605 1.06023,-0.303501 1.60628,-0.334674 0.46681,-0.02665 0.92877,0.108948 1.39317,0.163423 0,0 -0.0161,-0.01199 -0.0161,-0.01199 v 0 c -0.50462,-0.08218 -1.00283,-0.261321 -1.51387,-0.246528 -0.54618,0.0158 -1.07151,0.215418 -1.60425,0.33678 -1.85798,0.423251 -3.72655,1.101968 -5.63623,0.553842 -0.63527,-0.227754 -1.24706,-0.523981 -1.89497,-0.712764 -1.79486,-0.522959 -3.5482,0.03216 -5.20917,0.734923 -3.23837,0.921911 -4.48257,0.897665 -7.41485,-0.775994 z" /><path
       style="font-variation-settings:'opsz' 32;fill:#ffffff;fill-opacity:1;stroke:#000000;stroke-width:3.687;stroke-linecap:square;stroke-linejoin:round;stroke-miterlimit:5.4;stroke-dasharray:none;stroke-opacity:1;paint-order:markers stroke fill"
       id="path50"
       d="m 152.35166,136.1418 c -0.2815,2.81171 2.09009,1.60554 3.57805,0.88656 1.45688,-0.59525 3.08142,-1.90096 4.71858,-1.24844 0.1983,0.079 0.98308,0.71954 1.03568,0.76068 0.32467,0.18838 0.62132,0.43666 0.97401,0.56513 1.56112,0.56869 4.10747,-0.70125 5.61248,-1.18267 0.51069,-0.003 1.00522,-0.13097 1.40574,0.30892 0.0892,0.0979 0.0104,0.26706 0.0456,0.39475 0.19855,0.71933 0.48003,1.37219 0.90392,1.97962 0.3131,0.1144 0.6061,0.33354 0.93931,0.3432 0.35934,0.0104 2.0185,-0.78259 2.15565,-0.83734 1.511,-0.60311 1.83672,-0.73984 3.31199,-0.10079 1.66302,1.85464 3.88656,1.46724 6.06008,1.05756 0,0 -0.0164,-0.0115 -0.0164,-0.0115 v 0 c -2.66742,0.34478 -4.187,0.59516 -6.31964,-1.26394 -0.308,-0.12758 -0.59476,-0.3303 -0.92398,-0.38274 -1.77465,-0.28266 -3.16551,1.2693 -4.87588,1.33935 -0.93694,-1.30411 -0.81502,-3.25547 -2.97416,-3.02267 -1.80984,0.59059 -4.09925,1.87244 -5.96598,0.94633 -0.69386,-0.54623 -1.54887,-1.34497 -2.50426,-1.32176 -1.37804,0.0335 -2.61746,1.05518 -3.85868,1.49405 -0.1454,0.0682 -2.31368,1.12718 -2.67458,0.92161 -0.47665,-0.27151 -0.34452,-1.05134 -0.34504,-1.47482 z" /><path
       style="font-variation-settings:'opsz' 32;fill:#ffffff;fill-opacity:1;stroke:#000000;stroke-width:3.687;stroke-linecap:square;stroke-linejoin:round;stroke-miterlimit:5.4;stroke-dasharray:none;stroke-opacity:1;paint-order:markers stroke fill"
       id="path51"
       d="m 289.7669,138.68057 c 1.56662,1.54253 4.75454,0.80898 6.49306,-0.0628 0.48226,-0.24183 0.90765,-0.58341 1.36149,-0.87512 0.44638,-0.32196 3.08396,-2.85411 1.97792,-3.57454 -0.23519,-0.15319 -0.5267,-0.19423 -0.79004,-0.29135 -1.39436,0.26075 -2.81827,1.21307 -2.97389,2.7561 -0.0353,0.3492 0.061,0.6993 0.0914,1.04895 0.14385,0.35486 0.22524,0.742 0.43159,1.06457 1.23457,1.93015 3.96954,2.60195 6.10261,2.43908 0.72639,-0.0555 1.43621,-0.24528 2.15429,-0.36792 3.47067,-0.93336 6.69301,-2.79582 8.76446,-5.80479 0.30077,-0.43694 0.52125,-0.92405 0.78189,-1.38607 0.47223,-1.36007 0.66239,-3.14984 -1.29714,-3.29829 -0.77595,-0.0588 -1.35068,0.57294 -1.88418,0.98265 -1.82123,2.05064 -2.19607,4.41619 -0.0167,6.42561 0.4227,0.38973 0.93789,0.6653 1.40682,0.99794 2.4254,1.18444 1.2927,0.79505 3.33779,1.33085 0,0 -0.0159,-0.0122 -0.0159,-0.0122 v 0 c -1.9943,-0.71405 -1.09114,-0.34063 -2.72455,-1.083 -0.45752,-0.3217 -0.95861,-0.58899 -1.37255,-0.96511 -2.17985,-1.98057 -1.82787,-4.27041 -0.10216,-6.37219 1.16346,-0.9868 0.46945,-0.6088 1.77784,-0.99533 0.0938,-0.0277 0.19805,-0.15489 0.27692,-0.097 0.92093,0.6755 0.45027,2.01316 0.20018,2.8481 -0.25709,0.46107 -0.47437,0.94674 -0.77134,1.38323 -2.05086,3.0145 -5.26492,4.86646 -8.73038,5.78692 -2.52957,0.41729 -5.78551,0.93314 -7.44574,-1.60833 -0.20757,-0.31774 -0.29133,-0.70094 -0.43699,-1.05141 -0.0381,-0.34657 -0.14062,-0.69206 -0.11422,-1.03972 0.11494,-1.51299 1.42867,-2.53552 2.81787,-2.78518 1.64833,-0.21099 -1.11802,3.70526 -1.62491,3.55356 -0.45011,0.29247 -0.87162,0.63452 -1.3503,0.87741 -1.48794,0.75498 -4.1089,1.39759 -5.7294,0.6665 -0.18558,-0.0837 -0.29472,-0.28096 -0.44209,-0.42143 z" /><path
       style="font-variation-settings:'opsz' 32;fill:#8cff8c;fill-opacity:1;stroke:#000000;stroke-width:2.787;stroke-linecap:round;stroke-linejoin:round;stroke-miterlimit:5.4;stroke-dasharray:none;stroke-opacity:1;paint-order:markers stroke fill"
       d="m 394.57044,63.586155 h 6.85133"
       id="path52" /><path
       style="font-variation-settings:'opsz' 32;fill:none;fill-opacity:1;stroke:#000000;stroke-width:2.787;stroke-linecap:round;stroke-linejoin:round;stroke-miterlimit:5.4;stroke-dasharray:none;stroke-opacity:1;paint-order:markers stroke fill"
       d="m 397.37628,58.920876 5.02431,4.795927 -4.56756,4.110794"
       id="path53" /><path
       style="font-variation-settings:'opsz' 32;fill:none;fill-opacity:1;stroke:#000000;stroke-width:1.887;stroke-linecap:round;stroke-linejoin:round;stroke-miterlimit:5.4;stroke-dasharray:none;stroke-opacity:1;paint-order:markers stroke fill"
       id="path54"
       d="m 177.81348,61.167583 c 0.92034,2.243429 3.65805,2.226091 5.6428,1.584153 0.56413,-0.182462 1.08745,-0.472871 1.63118,-0.709305 0.89789,-0.679143 2.20396,-1.620274 2.18493,-2.931941 -0.008,-0.584406 -0.75074,-0.765812 -1.18993,-0.644353 -0.29532,0.08167 -0.45433,0.411218 -0.68149,0.616829 -0.0925,0.420013 -0.27746,0.829953 -0.27762,1.260041 -7.9e-4,1.868127 1.37215,3.085798 3.06301,3.625043 1.43951,0.459078 2.32255,0.108709 3.7454,-0.152342 1.54878,-0.577638 2.99274,-1.346367 3.86363,-2.80874 0.32785,-0.550508 0.32383,-1.011663 0.11101,-0.938292 -0.2234,0.07701 -0.3569,0.309793 -0.53535,0.464688 0.007,0.36467 -0.0707,0.741333 0.0224,1.09401 0.74887,2.838354 4.59995,2.392693 6.72693,1.825839 0.72316,-0.192725 1.40934,-0.504142 2.11401,-0.756211 1.41337,-0.608894 2.56779,-1.521404 3.65853,-2.572179 0.0602,-0.05801 0.26183,-0.207499 0.19236,-0.160972 -0.54997,0.36835 -0.3063,0.233725 -0.21244,1.137179 0.25337,0.390247 0.42624,0.846685 0.76012,1.170742 1.51688,1.472247 3.91036,1.904923 5.92297,1.491014 1.73865,-0.357566 2.90409,-1.153094 4.41873,-1.994718 2.69145,-1.932119 0.65902,-0.408392 2.82488,-2.174766 0.4667,-0.380616 0.87383,-0.745808 1.01655,-0.547047 0.0699,0.0974 -0.16345,0.230862 -0.1154,0.340725 0.17119,0.391374 0.48418,0.703908 0.72627,1.055862 0.42887,0.399039 0.80455,0.864288 1.28662,1.197118 2.53711,1.751692 5.65762,2.353135 8.67344,1.793422 0.63189,-0.117274 1.23643,-0.351252 1.85465,-0.526878 1.26657,-0.162343 2.15342,-1.326478 3.32227,-1.694076 0.12189,-0.03833 0.29268,-0.05114 0.38111,0.04109 0.0571,0.0596 -0.17518,0.105492 -0.16238,0.187063 0.045,0.286618 0.21261,0.539911 0.31891,0.809868 1.37934,2.904996 4.53243,3.838324 7.54745,3.246546 0.73328,-0.143925 1.43148,-0.429561 2.14722,-0.64434 1.74365,-0.669528 3.32282,-1.657802 4.55277,-3.077241 0.32789,-0.378397 0.76494,-1.09546 0.65552,-1.21135 -0.13615,-0.144206 -0.39111,-0.06605 -0.58667,-0.09907 -0.58954,2.682377 1.68375,3.938407 4.05997,4.236288 0.74481,0.09337 1.50095,-0.03126 2.25142,-0.04689 2.06584,-0.313997 3.92356,-1.058587 5.58387,-2.32052 0.24685,-0.187635 0.46093,-0.415319 0.68014,-0.634616 0.0448,-0.04485 0.16742,-0.181674 0.10967,-0.155477 -0.2167,0.09828 -0.40291,0.253224 -0.60437,0.379838 -0.029,0.36761 -0.14078,0.737989 -0.0872,1.102828 0.39211,2.668686 3.1283,3.757428 5.49553,3.999032 0.74948,0.07649 1.50662,0.01995 2.25991,0.02993 0.72977,-0.07876 1.45957,-0.157522 2.18938,-0.236283 0,0 -0.0164,-0.01162 -0.0164,-0.01162 v 0 c -0.74589,0.06692 -1.49177,0.133835 -2.23769,0.200753 -2.80596,-0.06857 -6.81021,-0.120758 -7.28784,-3.772434 -0.0472,-0.360918 0.0588,-0.725602 0.0882,-1.088404 -0.0575,-0.271899 -0.0806,-0.553436 -0.17256,-0.815697 -0.0201,-0.05708 -0.014,0.126955 -0.0526,0.173665 -0.19309,0.234738 -0.39391,0.468193 -0.6314,0.65787 -1.62371,1.296715 -3.50856,1.997798 -5.55201,2.320878 -0.93248,0.01431 -2.91539,0.180411 -3.91173,-0.242904 -1.38129,-0.586861 -2.03305,-2.11714 -1.7132,-3.503922 -0.1039,-0.138059 -0.13899,-0.409051 -0.3117,-0.414181 -0.13677,-0.0041 -0.0189,0.280276 -0.0804,0.402537 -0.144,0.286613 -0.31934,0.560578 -0.52655,0.805418 -1.20815,1.427541 -2.78616,2.40365 -4.51796,3.073091 -0.71481,0.211836 -1.41215,0.495485 -2.14442,0.635508 -2.99203,0.572124 -5.35041,-0.0053 -6.75944,-2.791418 -0.2691,-0.684691 -0.28359,-1.03097 -0.94934,-1.464011 -0.48575,-0.315958 -3.01634,1.750983 -3.64532,1.711783 -0.6065,0.181194 -1.19809,0.423074 -1.8195,0.543583 -2.67716,0.519192 -5.82541,0.135912 -8.09836,-1.475607 -0.47235,-0.334899 -0.84802,-0.788646 -1.27203,-1.182971 -0.23973,-0.347649 -0.47731,-0.696791 -0.71919,-1.042948 -0.16257,-0.23265 -0.26971,-0.519676 -0.49413,-0.693425 -0.19625,-0.151929 -0.67435,0.343988 -0.97307,0.597792 -1.83892,1.562415 -0.52044,0.535493 -2.79528,2.187371 -2.26768,1.27445 -3.94992,2.284812 -6.66293,2.097569 -1.27021,-0.08766 -2.25104,-0.432342 -3.17545,-1.327875 -0.32829,-0.31804 -0.49951,-0.765633 -0.74927,-1.148448 -0.0388,-0.395245 -0.001,-1.141547 -0.38382,-1.469133 -0.0622,-0.05323 -0.11461,0.11684 -0.17136,0.175805 -0.20954,0.217739 -0.39764,0.458115 -0.62748,0.654304 -1.21372,1.036008 -1.51968,1.103783 -2.98893,1.928842 -2.12922,0.762635 -4.14292,1.484727 -6.44566,0.988139 -0.45537,-0.0982 -0.93893,-0.245475 -1.27844,-0.564422 -0.72357,-0.679747 -0.58693,-1.420773 -0.60452,-2.263 -0.0287,-0.256691 -0.12805,-0.515181 -0.0862,-0.770067 0.0148,-0.09005 0.18471,0.116493 0.17852,0.207531 -0.0169,0.248711 -0.11575,0.492382 -0.24082,0.708022 -0.85047,1.466403 -2.30287,2.22372 -3.84005,2.79663 -1.67936,0.292846 -2.095,0.55826 -3.77439,0.103902 -1.47173,-0.398174 -2.41358,-1.705377 -2.42852,-3.211608 -0.004,-0.422418 0.17368,-0.826833 0.26052,-1.24025 0.22555,-0.195919 0.45791,-0.384268 0.67666,-0.587759 0.0813,-0.07558 0.11964,-0.291163 0.22192,-0.248134 0.16091,0.06769 0.25626,0.27803 0.26375,0.452438 0.0551,1.285549 -1.26495,2.240854 -2.10385,2.940621 -0.52861,0.244144 -1.03567,0.541732 -1.58582,0.732433 -1.84767,0.640474 -4.36748,0.779698 -5.23675,-1.339805 z" /></g></svg>
